<svg width="512" height="512" viewBox="0 0 512 512" fill="none" xmlns="http://www.w3.org/2000/svg">
<rect width="512" height="512" rx="117" fill="white"/>
<path d="M157 126.923C157 125.308 158.308 124 159.923 124H223V190H157V126.923Z" fill="#111111"/>
<path d="M157 322H223V355C223 373.225 208.225 388 190 388C171.775 388 157 373.225 157 355V322Z" fill="#111111"/>
<path d="M157 256H223V322H157V256Z" fill="#111111"/>
<path d="M157 190H223V256H157V190Z" fill="#111111"/>
<path d="M223 124H289V190H223V124Z" fill="#111111"/>
<path d="M289 322H355V355C355 373.225 340.225 388 322 388C303.775 388 289 373.225 289 355V322Z" fill="#111111"/>
<path d="M223 256H289V322H223V256Z" fill="#111111"/>
<path d="M289 256L325.484 274.242C343.573 283.287 355 301.775 355 322H289V256Z" fill="#111111"/>
<path d="M289 190H355C355 210.225 343.573 228.713 325.484 237.758L289 256V190Z" fill="#111111"/>
<path d="M289 124H300.446C330.576 124 355 148.424 355 178.554V190H289V124Z" fill="#111111"/>
</svg>
